<svg xmlns="http://www.w3.org/2000/svg" viewBox="0 0 441.76 913.56"><defs><style>.cls-1{isolation:isolate;}.cls-2{fill:none;}.cls-3{mix-blend-mode:multiply;}.cls-4,.cls-5{fill:#382c1c;}.cls-5,.cls-7,.cls-8,.cls-9{fill-rule:evenodd;}.cls-6{fill:#9b2d1f;}.cls-7{fill:#3f706d;}.cls-8{fill:#c4751b;}.cls-9{fill:#553c8b;}.cls-10{fill:#7e5843;}.cls-11{fill:#bfb3a8;}</style></defs><title>LogoMonAtelier</title><g class="cls-1"><g id="Layer_1" data-name="Layer 1"><rect class="cls-2" x="62.98" width="378.78" height="310.42" rx="12"/><g class="cls-3"><path class="cls-4" d="M25.89,78.42a16,16,0,0,1,2.24-.14,4.56,4.56,0,0,1,2.54.58,1.72,1.72,0,0,1,.79,1.46,1.79,1.79,0,0,1-.7,1.48,4.45,4.45,0,0,1-2.77.76,5.44,5.44,0,0,1-.94-.06v2.79H25.89Zm1.16,3.35a5.28,5.28,0,0,0,1,.07c1.41,0,2.27-.52,2.27-1.49S29.44,79,28.16,79a5.56,5.56,0,0,0-1.11.08Z" transform="translate(-3 828.15)"/><rect class="cls-4" x="30.7" y="906.48" width="1.17" height="6.96"/><path class="cls-4" d="M37.58,85.29v-7h1.28l2.9,3.52a19.63,19.63,0,0,1,1.62,2.26h0a23.31,23.31,0,0,1-.13-2.86V78.33h1.1v7H43.19l-2.87-3.53a21.86,21.86,0,0,1-1.69-2.32h0c.07.87.09,1.71.09,2.87v3Z" transform="translate(-3 828.15)"/><polygon class="cls-4" points="45.81 907.25 43.06 907.25 43.06 906.48 49.76 906.48 49.76 907.25 46.99 907.25 46.99 913.44 45.81 913.44 45.81 907.25"/><path class="cls-4" d="M55.61,78.33v4.12a2,2,0,0,0,2.1,2.22,2,2,0,0,0,2.21-2.22V78.33h1.17v4.06c0,2.14-1.46,3-3.42,3s-3.25-.81-3.25-3v-4.1Z" transform="translate(-3 828.15)"/><path class="cls-4" d="M63.8,78.42A16.15,16.15,0,0,1,66,78.28a4.54,4.54,0,0,1,2.62.57,1.58,1.58,0,0,1,.71,1.32c0,.92-.75,1.53-1.71,1.77v0A1.85,1.85,0,0,1,69,83.38a9.4,9.4,0,0,0,.7,1.91H68.48a7.94,7.94,0,0,1-.6-1.66,1.62,1.62,0,0,0-1.81-1.35H65v3H63.8ZM65,81.59h1.19c1.25,0,2-.52,2-1.32S67.36,79,66.12,79a5.33,5.33,0,0,0-1.15.09Z" transform="translate(-3 828.15)"/><path class="cls-4" d="M73.23,83.1l-.94,2.19H71.08l3.07-7h1.41l3.09,7H77.4l-1-2.19Zm3-.7-.88-2c-.2-.46-.34-.87-.47-1.27h0c-.13.41-.28.83-.46,1.26l-.88,2Z" transform="translate(-3 828.15)"/><path class="cls-4" d="M89.84,85.29c-.26-.2-.5-.39-.85-.68a4.35,4.35,0,0,1-2.64.79c-1.76,0-2.78-.91-2.78-2s.74-1.6,1.77-2v0a2.13,2.13,0,0,1-.75-1.46c0-.85.79-1.71,2.29-1.71,1.13,0,2,.58,2,1.48,0,.73-.55,1.31-2,1.85v0c.76.68,1.62,1.45,2.2,2a4.42,4.42,0,0,0,.87-2h1.08a4.74,4.74,0,0,1-1.31,2.57c.49.39,1,.79,1.49,1.23Zm-1.43-1.2c-.53-.45-1.54-1.3-2.55-2.19-.48.24-1.16.69-1.16,1.42s.76,1.4,1.85,1.4a2.9,2.9,0,0,0,1.86-.63m-2.75-4.24a1.75,1.75,0,0,0,.69,1.25c.91-.4,1.5-.77,1.5-1.36a.93.93,0,0,0-1-.9,1,1,0,0,0-1.14,1" transform="translate(-3 828.15)"/><path class="cls-4" d="M96.49,78.42A22.21,22.21,0,0,1,99,78.28a6.28,6.28,0,0,1,3.67.87,2.89,2.89,0,0,1,1.27,2.5,3.27,3.27,0,0,1-1.3,2.7,6.71,6.71,0,0,1-4,1c-.83,0-1.53,0-2.12-.08Zm1.16,6.16a10,10,0,0,0,1.19,0c2.49,0,3.85-1.07,3.85-2.95C102.7,80,101.49,79,99,79a9,9,0,0,0-1.38.09Z" transform="translate(-3 828.15)"/><rect class="cls-4" x="103.1" y="906.48" width="1.17" height="6.96"/><path class="cls-4" d="M112,85.29l-3-7h1.26l1.41,3.43a26.72,26.72,0,0,1,1,2.6h0a26.41,26.41,0,0,1,1-2.59l1.53-3.44h1.24l-3.23,7Z" transform="translate(-3 828.15)"/><polygon class="cls-4" points="119.83 910.18 116.32 910.18 116.32 912.69 120.24 912.69 120.24 913.44 115.15 913.44 115.15 906.48 120.04 906.48 120.04 907.24 116.32 907.24 116.32 909.44 119.83 909.44 119.83 910.18"/><path class="cls-4" d="M125.43,78.42a16.26,16.26,0,0,1,2.24-.14,4.54,4.54,0,0,1,2.62.57,1.58,1.58,0,0,1,.71,1.32c0,.92-.75,1.53-1.71,1.77v0a1.85,1.85,0,0,1,1.33,1.4,9.4,9.4,0,0,0,.7,1.91h-1.21a7.94,7.94,0,0,1-.6-1.66,1.62,1.62,0,0,0-1.81-1.35h-1.1v3h-1.17Zm1.17,3.17h1.19c1.25,0,2-.52,2-1.32S129,79,127.75,79a5.26,5.26,0,0,0-1.15.09Z" transform="translate(-3 828.15)"/><path class="cls-4" d="M133.17,84.2a5.17,5.17,0,0,0,2.09.45c1.19,0,1.89-.48,1.89-1.19s-.48-1-1.7-1.38c-1.48-.4-2.39-1-2.39-2s1.17-1.89,2.92-1.89a5,5,0,0,1,2,.34l-.32.73a4.53,4.53,0,0,0-1.72-.33c-1.23,0-1.7.57-1.7,1,0,.66.55,1,1.8,1.35,1.53.45,2.31,1,2.31,2s-1,2-3.17,2a5.78,5.78,0,0,1-2.31-.44Z" transform="translate(-3 828.15)"/><rect class="cls-4" x="137.62" y="906.48" width="1.17" height="6.96"/><path class="cls-4" d="M152.23,81.74c0,2.39-1.89,3.66-4.2,3.66S144,84,144,81.87s1.79-3.65,4.2-3.65,4.07,1.45,4.07,3.52m-7,.11a2.9,2.9,0,1,0,2.9-2.9,2.75,2.75,0,0,0-2.9,2.9m4.85-5.12-1.71,1.2h-1l1.25-1.2Z" transform="translate(-3 828.15)"/><path class="cls-4" d="M154.42,85.29v-7h1.28l2.9,3.52a19.63,19.63,0,0,1,1.62,2.26h0a23.31,23.31,0,0,1-.13-2.86V78.33h1.09v7H160l-2.87-3.53a21.86,21.86,0,0,1-1.69-2.32h0c.07.87.09,1.71.09,2.87v3Z" transform="translate(-3 828.15)"/><path class="cls-4" d="M101,20.32c.23-.27.45-.59.68-.91a4.23,4.23,0,0,1,2.42-1.73,1.24,1.24,0,0,1,.92.18,1.82,1.82,0,0,0,1.32.18c.55-.09.91,0,1,.32a3.58,3.58,0,0,0,0,.59,1.25,1.25,0,0,1-.22,1c-.1,0-.05.14-.05.23,0,1,.23.13-.23,1.18-.23.51-.27,1-.45,1.37-2.2,5.53.09,2.79,1.91.37a3.89,3.89,0,0,1,.92-1.33c.64-.91,1.41-1.73,2-2.69A16.86,16.86,0,0,1,115,15.53c.5-.32,1-.82,1.42-.73a2.37,2.37,0,0,1,1.23.5,3.4,3.4,0,0,1,.78,1c.09,0,.13.09.18.09.64.14.64.78.64,1.37a1.77,1.77,0,0,0-.14.37,15.15,15.15,0,0,0-1.37,3.79c-.09.64-.18,1.32-.23,1.91s-.13,1.28-.27,2a3.1,3.1,0,0,1-.59,1.78s0,.09,0,.18c.32.27-.14.59-.28.91,0,.14-.13.32,0,.46a1.72,1.72,0,0,1-.32,1.55,1.61,1.61,0,0,0,0,.28c-.14.41-.23.77-.32,1.14,0,0,0-.05.23-.14-.14.64-.91,1.19-.68,1.78.31,0,.27.32.18.73a16.66,16.66,0,0,1-.73,2.74s0,.09,0,.14c.23.45-.32,1.09-.18,1.69,0,.36-.23.82,0,1.27a1.54,1.54,0,0,1-.5.92c-.09.18-.32.32-.5.5-.28.64-.32.68-.92.73-.13,0-.27,0-.55.09s-.54.05-.68-.18-.18-.14-.37-.18c-.59-.14-.77-.69-.5-1.28a36.08,36.08,0,0,0,.87-4.66,10,10,0,0,0,.32-1.19c.18-.54.32-1.18.59-1.82,0,.18-.09.41-.09.64.14-.09.14-.09.18-.09a6,6,0,0,0,.28-1,9.22,9.22,0,0,0,.45-2.46.17.17,0,0,1,0-.19c.46-.45,0-.91.42-1.37.13-.13.09-.32.13-.41a2.11,2.11,0,0,1,.41-1.5v-.23l0,0c-.32.69-.6,1.37-.87,2.06h-.14c.69-4,.87-4.52-2.23-.19a.21.21,0,0,1-.09-.13.2.2,0,0,0-.14,0,1.25,1.25,0,0,1-.14.41,2,2,0,0,1-1,1.19.34.34,0,0,0-.23.27,1.6,1.6,0,0,0-.41.55c-.5,1.42-3.47,5.62-4.33,7a7.32,7.32,0,0,1-1.56,1.6c0-.27,0-.46.09-.64h-.09a10.2,10.2,0,0,1-.64.92s0,0-.09-.1a1.59,1.59,0,0,1-1.23,1,3.58,3.58,0,0,1-2.37.14,3.82,3.82,0,0,1-1.42-.5c-.32-.23-.36-.19-.05-.73.46-.73.87-1.46,1.37-2.1a2.86,2.86,0,0,0,.74-2c1-5.06,3.83-11.5.09-5.66a14.12,14.12,0,0,1-1.56,2.24C96.14,35.07,92.54,39.73,92,43.1a3.86,3.86,0,0,1-.32,1c-.27.41-.5.46-.73.27s-.18,0-.23-.09c-.23-.55-.68-.64-1.28-.73a2.37,2.37,0,0,1-.86-.41s0-.27,0-.36a17,17,0,0,0,1.6-4.52,15,15,0,0,1,.36-1.74c.14-.68,1.28-3.38,1.46-4.06l.55-2.19c.37-1.42.69-2.83,1.1-4.25a5.86,5.86,0,0,0,.18-.91,10.87,10.87,0,0,1,.82-3.2c.14-.32.19-.68.37-1.05a10,10,0,0,1,.36-1c.14-.32.32-.46.55-.37s.55.41.78.64.09.46.13.73a18.09,18.09,0,0,1-.64,2.74c-1,5.07,2.88-.73,3.43-1.55C100.07,21.47,100.62,20.92,101,20.32ZM98.52,38.54a3.65,3.65,0,0,1,.23-.41V37.9a1.2,1.2,0,0,1-.28.32.76.76,0,0,1,0,.32Zm6.25-8.9a12.69,12.69,0,0,0,.69-1.14,4.47,4.47,0,0,1,1.32-1.83,1.26,1.26,0,0,0,.27-.69,15.76,15.76,0,0,0-2.6,4A1.08,1.08,0,0,0,104.77,29.64Zm4.48-6.17a.57.57,0,0,1,.18-.36,16,16,0,0,0,1.46-2.28,16.14,16.14,0,0,0-2.33,3.24A1.17,1.17,0,0,0,109.25,23.47Z" transform="translate(-3 828.15)"/><path class="cls-4" d="M120.84,30.64a7.36,7.36,0,0,1-.87-2.87,3.37,3.37,0,0,1,.51-2.24.44.44,0,0,1,.32-.23,8.55,8.55,0,0,1,1.37-.91,2,2,0,0,1,1.46-.23c.36,0,1.37.91,1.59,1.09a6.43,6.43,0,0,0,.87.69,3.21,3.21,0,0,1,.91,1.37,6.38,6.38,0,0,0,.42,1,12.49,12.49,0,0,1,.27,1.33,8.74,8.74,0,0,0,.14,1.09c0,.05,0,.05,0,.14-.13-.73,0,.32,0,.46a8.82,8.82,0,0,1,0,1.55c-.14.27.13.59.5.59,2.24-.13,3.1.18,5.29-.18.23-.09.46-.23.73-.37a3.3,3.3,0,0,0,.32-.18.4.4,0,0,1,0,.41c-.13.23.32.32.14.5-1.37,1.47-5.57,1.42-7.21,1.42h-.14c-.14,0-.27,0-.27.14s0,.13-.09.22a11.91,11.91,0,0,1-.87,2.29,5.84,5.84,0,0,1-.87,1.37,2.51,2.51,0,0,1-.64.77c-.09,0-.18.14-.32.23a.53.53,0,0,0-.27.28,2.66,2.66,0,0,1-1.28.86,1.12,1.12,0,0,0-.46.19,4.38,4.38,0,0,1-1.87,0A2.5,2.5,0,0,1,118.7,40c-.14-.36-.28-.82-.42-1.23a11.66,11.66,0,0,1,0-2.51,7,7,0,0,1,.78-2.51,10.29,10.29,0,0,1,1.68-2.7c.14,0,.14-.13.19-.27A.16.16,0,0,0,120.84,30.64Zm5.43-1.82a13.16,13.16,0,0,0-.32-1.47,2.19,2.19,0,0,0-.63-1.09,2.46,2.46,0,0,0-.6-.55,4.89,4.89,0,0,0-.82-.59c-.55-.46-1.55.5-1.87.82-1.23,1.73,0,4.11,1.09,5.34,1.33,2.6,3.75,1.69,3.2-1.37A1.75,1.75,0,0,0,126.27,28.82Zm-4.06,8.9a4.47,4.47,0,0,0,0,.73c-.1.09,0,.14,0,.23a1,1,0,0,0,.5.54c.05,0,.05,0,.09,0s.14-.09.19-.14a10.21,10.21,0,0,0,1.78-2.92,6.39,6.39,0,0,0,.45-1.1c-1-.45-1.55,0-2.14.73A6.41,6.41,0,0,0,122.21,37.72Z" transform="translate(-3 828.15)"/><path class="cls-4" d="M143,31.92a26.25,26.25,0,0,0-1.87,2.1,15.09,15.09,0,0,1-1.41,1.6,4.55,4.55,0,0,0-.78,1.05,5.5,5.5,0,0,1-.64.91,1,1,0,0,0-.36.46c-.46.45-1.15,3.38-1.51,3.83a.73.73,0,0,1-.59.28,1.57,1.57,0,0,0-.64.22.87.87,0,0,1-.73.14,8.66,8.66,0,0,0-1.51-.14,6.63,6.63,0,0,0-.91-.13,1.57,1.57,0,0,1-.92-1.92,36.53,36.53,0,0,1,1.37-5,24.13,24.13,0,0,1,1.05-2.51c.46-1.14,1-2.29,1.51-3.43.5-1,1.09-1.91,1.6-2.78a13,13,0,0,0,.86-1.65A4.59,4.59,0,0,0,138,23.7c0-.13,0-.18,0-.32a.41.41,0,0,1,.55.05,2.31,2.31,0,0,0,1.23.82s.19.14.23.23c.23.27.46.59.69.91a2.22,2.22,0,0,1,.18,1.33,12.87,12.87,0,0,1-1.42,5.11,5.47,5.47,0,0,1-.68,1.37c-.59,1-.18,1.55.41,1.23a20.17,20.17,0,0,0,1.87-2c1-1.28,1.55-1.6,2.56-2.69.23-.23.59-.6.87-.91a1.28,1.28,0,0,1,1-.69H146c.59.09,1.14.05,1.69.14a1.23,1.23,0,0,1,.82.68,1.17,1.17,0,0,1,.18.69,4.07,4.07,0,0,1,0,1.87c-.18.87-.27,1.37-.5,2.24a13.78,13.78,0,0,0-.27,3.79c.09,1.09,1.6.77,2,.54.23-.09.41-.23.69-.32A18.74,18.74,0,0,0,154,34.89c.14-.19,1.55-1.24,1.74-1.46.36-.55.36-.87.73-1.37a1.5,1.5,0,0,1,.27-.41c0,.09,0,.18,0,.22,0,.28,0,.46,0,.73s0,0-.1.28a.94.94,0,0,0-.18.59,2,2,0,0,1-.27.69c-.41.59-.87,1.55-1.28,2s-2.15,2.37-2.56,2.73a3.11,3.11,0,0,1-.68.42,5.62,5.62,0,0,0-.55.18,9.11,9.11,0,0,1-3.83.09c-2-.64-2.93-2.24-3-4.84,0-.59.09-1.14.09-1.73.18-1,.36-3.15-.64-2.1A9.17,9.17,0,0,1,143,31.92Z" transform="translate(-3 828.15)"/><path class="cls-4" d="M85.64,52.85a4,4,0,0,1,1.7-.51.83.83,0,0,1,.55.09c.26.08.47.25.77.38a.8.8,0,0,1-.56.42c-1.19.6-2.25,1.36-3.4,2a.63.63,0,0,0-.34.56c0,.38-.08.8-.08,1.19s0,.55-.39.68-.21.29-.21.59c.17-.17.21-.3.3-.38.25,0,.17.55-.13.72,0,0-.08,0-.08.09s-.09,0-.17.12c0,1.07,0,2.22,0,3.32a6.11,6.11,0,0,1-.08.85,6.44,6.44,0,0,0,0,2.55,15.08,15.08,0,0,1,.21,2c0,.47,0,.94,0,1.4A10.61,10.61,0,0,1,83.64,70l-.38-.39a.67.67,0,0,1-.13.17.36.36,0,0,0,0,.22c-.34,0-.77-.13-.77.38a.82.82,0,0,1-.72-.17,3,3,0,0,1-.68-.64,9.47,9.47,0,0,1-1.23-3c0-.17-.09-.38.16-.51.05,0,.05-.25.05-.38-.09-.34-.17-.68-.26-1a24,24,0,0,1-.81-5.48c0-.22-.08-.43-.12-.69-.17.09-.34.13-.47.22a9.57,9.57,0,0,1-2.55,1.19c-.68.21-1.45.42-2.17.59A3.4,3.4,0,0,0,72,62c-.73,1.28-1.66,2.38-2.38,3.57a.89.89,0,0,1-.56.3c-1,.08.26.94-.63.64-2.17.34-1.24-1-2-2.09.68-.89,1.4-1.78,2.12-2.63.39-.43.77-.81,1.15-1.19.6-.6-.08.08.47-.64-.13-.13-.26-.21-.38-.34-.3-.21-.56-.42-.85-.64a.66.66,0,0,1-.22-.72.81.81,0,0,1,.81.17,11.46,11.46,0,0,0,1.23.55.47.47,0,0,0,.39-.08c.46-.51.89-1.07,1.36-1.58a2.19,2.19,0,0,1,.21-.34,34,34,0,0,0,2.89-4.2c1.11-1.71,2.17-3.45,3.27-5.15a4,4,0,0,0,.77-2.12A26.78,26.78,0,0,1,80,42.77a23.2,23.2,0,0,1,1.7-4.42c.25-.47.38-.51.85-.38.63.17,1.27.3,1.91.47a1.1,1.1,0,0,1,.59.29,14.11,14.11,0,0,1,1,1.07,2.38,2.38,0,0,1,.26.68,7,7,0,0,1,0,2.8c-.16,1.24-.34,2.43-.55,3.66,0,.13,0,.3,0,.47a8.5,8.5,0,0,1-.51,2.72,11.49,11.49,0,0,0-.43,2.13,6.55,6.55,0,0,0,0,.89l.09.08C85.08,53.11,85.38,53,85.64,52.85Zm-7.27,3.44a.63.63,0,0,0,.42-.59c0-.68,0-1.4.09-2.08.34-4.6-.77-2.09-2.26.63C74.12,57.53,75.18,58.38,78.37,56.29Z" transform="translate(-3 828.15)"/><path class="cls-4" d="M102,57.44c0,.26-.13.26-.09.47a7.37,7.37,0,0,1-.51,1.57c-.25.68-.55,1.36-.81,2s-.76,1.45-1.14,2.17c-.17.3-2.17,2.85-2.39,3-.55.38-1.48,1.49-2,1.83a9.67,9.67,0,0,1-1.92.72,5.34,5.34,0,0,1-1.65,0,4.92,4.92,0,0,1-2.64-2.3,6.2,6.2,0,0,1-.6-1.14,11.4,11.4,0,0,1-.34-2.09c0-3.57.43-4.08,1.45-7.52.08-.3.13-.56.21-.85a4.23,4.23,0,0,1,.26-.85c.13-.47.25-.94.38-1.36.21-.94,1.32-2.56.3-2.77a1.37,1.37,0,0,1-.81-.21c-.26-.17-.51-.3-.77-.47a.66.66,0,0,1-.25-.38.81.81,0,0,1,.21-.09c.6-.12,1.15-.25,1.74-.38a11.59,11.59,0,0,1,1.24-.17.55.55,0,0,0,.42-.34,7.8,7.8,0,0,0,.43-1c.42-.81.72-1.66,1.19-2.42a8.35,8.35,0,0,1,1.4-1.79,2.59,2.59,0,0,1,.3-.34.67.67,0,0,1,.55-.17c.26.09.51,0,.81,0,0,0,0,0,.08,0,.6-.13.81.12,1,.59a2.83,2.83,0,0,1,.3,1.36,2.8,2.8,0,0,0,.09.68,1.51,1.51,0,0,1,0,.6c0,.21-.09.42-.13.68s-.17.68-.26,1a1,1,0,0,1,0,.34.76.76,0,0,0,.43.08l1.57-.12h2.21a6.92,6.92,0,0,1,.81.12c-.09.13-.13.22-.17.26a1.65,1.65,0,0,1-.3.21l-.94.43a0,0,0,0,1,0,0,8.91,8.91,0,0,1-1.49.21,3.09,3.09,0,0,0-.89.13,3.65,3.65,0,0,1-.55.13l-1,.12c-.17,0-.25.17-.34.34s0,.09-.08.13c-.52,1.45-1.2,2.81-1.75,4.21a4.35,4.35,0,0,0-.21.47,7,7,0,0,0-.51,1.27,5.47,5.47,0,0,1-.55,1.11c-.17.3-.13.68-.34,1A19,19,0,0,0,93,63.78a7.24,7.24,0,0,0,.43,2,2.12,2.12,0,0,0,.38.51s.08.05.17.05a3.14,3.14,0,0,0,1.53-.22c.25-.17,1.53-1.19,1.79-1.4a17.67,17.67,0,0,0,2.5-3.06c.39-.72.6-1.66,1-2.34.17-.43.6-1.36.81-1.83C101.75,57.48,102.05,57.31,102,57.44Zm-6.59-6.29c.42-1.06.55-1.91-.85-1-.47,1.4-.64,2.38-1,3.7-.94,3.53.42.89,1-.68A14.13,14.13,0,0,1,95.42,51.15Zm1.31-4.89c0-.17.09-.38.13-.6s.13-.68.17-1a5.44,5.44,0,0,0,0-1.14c0-.17-.17-.22-.26-.13a1,1,0,0,0-.38.42,4.79,4.79,0,0,0-.42,1.11c-.05.13-.13.25-.17.38a6,6,0,0,0-.26.56c-.08.42-.17.89-.3,1.36-.17,1.1,1,1.14,1.28.38C96.56,47.15,96.65,46.73,96.73,46.26Z" transform="translate(-3 828.15)"/><path class="cls-4" d="M105.2,57.57c0,.08-.09.17-.17.21a.25.25,0,0,0-.13.21c0,.17-.09.22-.21.26s-.09.08-.13.34c.08,0,.13,0,.17,0v0h-.3a1.08,1.08,0,0,0,0-.34h-.08c0,.3-.09.6-.13.9.09,0,.13.08.17.08a6.12,6.12,0,0,1,0,.85,2.13,2.13,0,0,0,.17.77c.13.17.47,1.1.6,1.27.59.6,1.32,1.36,2,1.41a10.37,10.37,0,0,0,1.65-.22,8.85,8.85,0,0,0,2.94-1.57c.72-.55,1.4-1.19,2.12-1.78l.13-.13c.26-.3.51-.55.77-.85a11.35,11.35,0,0,0,1.27-1.49,1,1,0,0,1,.51-.51,4.24,4.24,0,0,1-.34,1.06.89.89,0,0,1-.21.34,4,4,0,0,0-.64.9c-.13.17-.3.34-.42.51a1.13,1.13,0,0,0-.17.25l.34-.13c0,.26-.26.3-.3.51,0,0,0,.09.13.13a2.64,2.64,0,0,1-.43.51,6.12,6.12,0,0,0-.72.72A9.79,9.79,0,0,1,112.64,63c-.22.17-.39.34-.6.47s-.34.21-.51.34a5.75,5.75,0,0,0-.76.42,4,4,0,0,1-1.37.55l-.38.13a6.37,6.37,0,0,1-1.53.3,15.13,15.13,0,0,1-3.65-.6,6.4,6.4,0,0,1-2.47-1.91,2.16,2.16,0,0,1-.6-.89,6,6,0,0,1-.29-1.79,9,9,0,0,1,.89-3.78c.13-.26.13-.26.08-.64A.76.76,0,0,0,101,56a6.76,6.76,0,0,1-.51,1.1,2.17,2.17,0,0,1,.3-.93A13,13,0,0,1,102,54a11.94,11.94,0,0,1,1.57-2,9.84,9.84,0,0,1,1.91-1.61c.17-.09.3-.13.43-.21s.42-.13.55.08.3.09.38.17.17.26.26.34c.42.21,2,.64,2.42.89a1.18,1.18,0,0,1,.3.43,3.65,3.65,0,0,0,.68,1.06,1,1,0,0,1,.17.39,3.59,3.59,0,0,1,0,1.53A4.5,4.5,0,0,1,110,56.8a5.44,5.44,0,0,0-.46.9,4.53,4.53,0,0,1-.43.85,1.26,1.26,0,0,1-.77.64,1.33,1.33,0,0,1-.8.12c-.13,0-.26,0-.34-.17s0,0,0,0c-.34,0-.55-.34-.8-.47a.39.39,0,0,1-.09-.21c.09-.17,0-.26,0-.38-.17-.34-.34-.73-.55-1.07,0-.12-.17-.17-.3,0S105.2,57.31,105.2,57.57Zm-4,3.83c0,.12.08.21.12.34s.13.21,0,.38c0,0-.09,0-.09-.09a5.2,5.2,0,0,1-.38-1.53s0-.08,0-.12A7,7,0,0,1,101,58.5a1.23,1.23,0,0,0,.08-.38v-.3a3.54,3.54,0,0,0-.25.6c0,.21-.09.38-.13.59a4.78,4.78,0,0,0,.34,3,3.46,3.46,0,0,0,.34.47.64.64,0,0,0,.3.17s0,0,.13,0a3.57,3.57,0,0,1-.34-.59c-.13-.26-.13-.51-.26-.73C101.2,61.35,101.16,61.4,101.16,61.4Zm0-2.73a4.37,4.37,0,0,0-.09,2s0,0,.09.09c0-.47.08-.9.12-1.32a1.36,1.36,0,0,0,0-.85S101.16,58.63,101.16,58.67Zm3,1.07v0Zm2.33-4.47a4.83,4.83,0,0,0-.29.47c-.17.3-.13.51.08.64a1.13,1.13,0,0,1,.38.3,1,1,0,0,0,.94.21,1.32,1.32,0,0,0,.68-.68c.3-.72.47-.85.72-1.57.68-1.62-.68-1.24-1.32-.73A8.29,8.29,0,0,0,106.51,55.27Z" transform="translate(-3 828.15)"/><path class="cls-4" d="M129.43,59.48c-.21.43-.93,1.36-.93,1.83a1.48,1.48,0,0,1-.26.21,1.62,1.62,0,0,0-.34.51c-.08.22-.21.3-.3.47a9.05,9.05,0,0,1-1.95,2.59c-.26.22-2.51,2.39-2.68,2.6-1.23,1-2.89.55-4.13.59a1.82,1.82,0,0,1-.89-.17,5,5,0,0,1-1.49-.93c-.38-.94-1.36-1.57-1.44-2.89,0-.34-.21-.56-.26-.9,0-1.36.26-2.72.43-4.12.25-1,.47-2,.64-3a12.28,12.28,0,0,1,1.36-3.7c.42-1.1.8-1.19,1.23-2.29a16.13,16.13,0,0,1,1-1.7,13.07,13.07,0,0,1,1.06-1.87A20.38,20.38,0,0,1,123.1,43c.63-.64,1.31-1.32,2-1.87a4.53,4.53,0,0,1,1.15-.77,2.11,2.11,0,0,1,.38-.17,1.94,1.94,0,0,1,1.58.47,1.87,1.87,0,0,1,.42,1.79c-.08.51-.13,1-.25,1.48a3.62,3.62,0,0,1-.43,1.15,11.31,11.31,0,0,1-1.1,2.09c-.3.55-.64,1.1-.94,1.65-.51.77-.94,1.58-1.45,2.3-.89,1.19-1.65,2.47-2.46,3.66-1.32,2.25-1.19,2.63-1.66,4.89a14.66,14.66,0,0,0-.13,2.29c0,.26.17,1.91.22,2.08a4.76,4.76,0,0,0,.51,1.36c.08.18.68.3.89.39s2.55-1.32,2.85-1.53a9.17,9.17,0,0,0,1.82-1.62,10.86,10.86,0,0,0,1.49-2.08c.77-1,1-1.87,1.83-3C130.37,57.53,130,58.42,129.43,59.48Zm-6.8-7.65a52.94,52.94,0,0,0,2.8-4.85c.47-.89.85-1.78,1.32-2.68a10.73,10.73,0,0,0,.43-1.91c.08-.21.08-.34-.13-.25a1.14,1.14,0,0,0-.47.21,3.06,3.06,0,0,0-1.44,1.23c-.3.34-.51.72-.85,1.06a4.08,4.08,0,0,0-.77,1.49c-.21.43-.42.94-.64,1.36a22.91,22.91,0,0,1-1.14,2.68c-.17.43-.3.89-.47,1.32-.51,1.45-.3.72-.77,2.17-.12.34,0,1.32.51.72A29.62,29.62,0,0,0,122.63,51.83Z" transform="translate(-3 828.15)"/><path class="cls-4" d="M131.6,53.87l0,0a1.15,1.15,0,0,1,.34-.3c.47-.08,1.53-.85,2-.59.13.17.55.38.72.55a1,1,0,0,1,.09.93c-.26.56-.56,1.07-.9,1.75-.08.25-.17.46-.21.63-.17.39-.34.9-.55,1.28s.59-1.11.51-.68a.86.86,0,0,1-.13.34,2.81,2.81,0,0,0-.38,1.45c0,.42-.17,2.59-.13,3a1.27,1.27,0,0,0,.34.64,5.21,5.21,0,0,0,.64.34c.21.17.42.08.68,0,3.53-1.27,2.25-1.74,4.29-3.91A6.54,6.54,0,0,0,140,57.53c0-.05,0-.05.13-.26.21.43-.25,1,.34,1.15-.89,1.62-1.53,3.95-3,4.8-.43.56-3.32,3.11-5.19,2.39-.6.21-1.15-.39-1.79-.64a3.49,3.49,0,0,1-1.23-.94,5,5,0,0,1-.42-1.7,2.32,2.32,0,0,1-.09-.76c.13-.51,0-1.49.21-1.83a2.83,2.83,0,0,0,.13-.68c.09-.05,0-.26.3-.3,0,0,.08-.17.13-.21.21-.3.25-.56.46-.85,0,0-.89.89-.38,0,.34-.85,1.11-1.79,1.36-2.38a.46.46,0,0,1,.09-.21c.12-.26.25-.43.17-.73a.82.82,0,0,1,.12-.59A.29.29,0,0,0,131.6,53.87Zm3.91-4.63a1.07,1.07,0,0,0-.21.38.26.26,0,0,1-.09.21c-.12.13-.25.3-.42.51a1.31,1.31,0,0,1-.64.34c-.08,0-.21,0-.3.13a.5.5,0,0,1-.59,0,.55.55,0,0,0-.34-.08,1.51,1.51,0,0,1-.47-.05s.08-.12.13-.17a2.55,2.55,0,0,1,.12-.42,3.73,3.73,0,0,1,.3-.55c0-.09.13-.17.13-.22,0-.25.21-.46.34-.72l.26-.38c.08-.09.16-.17.25-.17s.17,0,.21,0,.09.08.17,0,.13-.08.17,0a3,3,0,0,0,.56.17,1.45,1.45,0,0,1,.68.64C135.64,49,135.6,49.15,135.51,49.24Z" transform="translate(-3 828.15)"/><path class="cls-4" d="M143.72,57.57c0,.08-.09.17-.17.21a.25.25,0,0,0-.13.21c0,.17-.09.22-.21.26s-.09.08-.13.34c.08,0,.13,0,.17,0v0H143a1.08,1.08,0,0,0,0-.34h-.08c0,.3-.09.6-.13.9.09,0,.13.08.17.08a6.12,6.12,0,0,1,0,.85,2.13,2.13,0,0,0,.17.77c.13.17.47,1.1.6,1.27.59.6,1.32,1.36,2,1.41a10.65,10.65,0,0,0,1.66-.22,8.91,8.91,0,0,0,2.93-1.57c.72-.55,1.4-1.19,2.12-1.78l.13-.13c.26-.3.51-.55.77-.85a10.64,10.64,0,0,0,1.27-1.49,1,1,0,0,1,.51-.51,4.24,4.24,0,0,1-.34,1.06.79.79,0,0,1-.21.34,4.33,4.33,0,0,0-.64.9c-.12.17-.29.34-.42.51a1.64,1.64,0,0,0-.17.25l.34-.13c0,.26-.26.3-.3.51,0,0,0,.09.13.13a2.64,2.64,0,0,1-.43.51,6.12,6.12,0,0,0-.72.72A9.79,9.79,0,0,1,151.16,63c-.22.17-.39.34-.6.47s-.34.21-.51.34a5.75,5.75,0,0,0-.76.42,4.06,4.06,0,0,1-1.36.55l-.39.13a6.37,6.37,0,0,1-1.53.3,15.13,15.13,0,0,1-3.65-.6,6.4,6.4,0,0,1-2.47-1.91,2.14,2.14,0,0,1-.59-.89A5.74,5.74,0,0,1,139,60a9,9,0,0,1,.89-3.78c.13-.26.13-.26.09-.64a.77.77,0,0,0-.43.47,6.76,6.76,0,0,1-.51,1.1,2.17,2.17,0,0,1,.3-.93A13,13,0,0,1,140.53,54a12.49,12.49,0,0,1,1.57-2A9.84,9.84,0,0,1,144,50.47c.17-.09.3-.13.43-.21s.42-.13.55.08.3.09.39.17.16.26.25.34c.42.21,2,.64,2.42.89a1.07,1.07,0,0,1,.3.43,3.65,3.65,0,0,0,.68,1.06,1,1,0,0,1,.17.39,3.59,3.59,0,0,1,0,1.53,4.5,4.5,0,0,1-.64,1.65,5.44,5.44,0,0,0-.46.9,4.53,4.53,0,0,1-.43.85,1.27,1.27,0,0,1-.76.64,1.37,1.37,0,0,1-.81.12c-.13,0-.26,0-.34-.17s0,0,0,0c-.33,0-.55-.34-.8-.47a.39.39,0,0,1-.09-.21c.09-.17,0-.26,0-.38-.17-.34-.34-.73-.55-1.07,0-.12-.17-.17-.3,0S143.72,57.31,143.72,57.57Zm-4,3.83c0,.12.08.21.13.34s.12.21,0,.38c0,0-.09,0-.09-.09a5.53,5.53,0,0,1-.38-1.53s0-.08,0-.12a7,7,0,0,1,.17-1.88,1.24,1.24,0,0,0,.09-.38v-.3a3,3,0,0,0-.26.6c0,.21-.08.38-.13.59a4.78,4.78,0,0,0,.34,3,4.62,4.62,0,0,0,.34.47.64.64,0,0,0,.3.17s0,0,.13,0a3.57,3.57,0,0,1-.34-.59c-.13-.26-.13-.51-.26-.73C139.72,61.35,139.68,61.4,139.68,61.4Zm0-2.73a4.52,4.52,0,0,0-.09,2s0,0,.09.09c0-.47.08-.9.13-1.32a1.43,1.43,0,0,0-.05-.85S139.68,58.63,139.68,58.67Zm3,1.07v0ZM145,55.27a4.83,4.83,0,0,0-.29.47c-.17.3-.13.51.08.64a1.13,1.13,0,0,1,.38.3,1,1,0,0,0,.94.21,1.32,1.32,0,0,0,.68-.68c.3-.72.47-.85.72-1.57.68-1.62-.68-1.24-1.31-.73A7.89,7.89,0,0,0,145,55.27Z" transform="translate(-3 828.15)"/><path class="cls-4" d="M159.24,58.93a40.9,40.9,0,0,1,1.95-4.17,9.4,9.4,0,0,0,.72-1.19,7,7,0,0,0,.68-1.06,1,1,0,0,1,.68-.51c.3,0,.56,0,.81,0,.51,0,.81.38,1.07.93v.17c.08.56.21,1.15.29,1.75a10.7,10.7,0,0,1,.05,1.7,10.84,10.84,0,0,1,0,1.14c.21.13.17.3.21.26s.38,0,.47,0,.12-.13.17-.22a2.36,2.36,0,0,0,.51-.46c.12-.22.25-.22.42,0a.39.39,0,0,1-.17.34,1.12,1.12,0,0,0-.13.21.44.44,0,0,1-.25.3l-.13.12c0,.05-.13.09-.13.13s-.08,0-.12.09a.59.59,0,0,1-.47.21.81.81,0,0,0-.38.17.27.27,0,0,1-.34,0,8.25,8.25,0,0,0-.9-.34,1.74,1.74,0,0,1-1.1-1.19,5.08,5.08,0,0,1-.13-2.42c.08-.39.08-.73.13-1.07l.12-.76a.6.6,0,0,0,0-.47s-.13,0-.13,0a1.05,1.05,0,0,0-.17.22c-.17.34-.38.68-.6,1.06a2.13,2.13,0,0,0-.25.76c0,.17-.09.3-.13.43a13.35,13.35,0,0,0-1,2.21c-.21.59-.51,1.1-.76,1.7-.38.89-.85,1.7-1.15,2.64-.08.29-.25.63-.38,1a16,16,0,0,1-1.41,2.51c0,.09-.12.13-.21.21a1.44,1.44,0,0,1-1.78.52c-.09.08-.17,0-.26-.09-.68-.17-1-.81-1.19-1.66a12.61,12.61,0,0,1-.13-2.21c.05-1.1.09-2.21.17-3.32a13.67,13.67,0,0,1,.39-2.29,11,11,0,0,1,.72-3.06,5.31,5.31,0,0,1,.3-.81,22,22,0,0,1,.89-2.13c.17-.55.34-.63.76-.55a5.88,5.88,0,0,1,1.07.17,1.58,1.58,0,0,1,.85.43,9,9,0,0,0,1.15,1.44,2.22,2.22,0,0,1,.21,2c-.21.85-.3.21-.51,1.11-.55,1.78-1.57,3.18-2,4.8C157.11,61.65,159.07,59.65,159.24,58.93Z" transform="translate(-3 828.15)"/><path class="cls-5" d="M43.25,61.88a2.18,2.18,0,0,1-.92,0,.6.6,0,0,0-.56.34c-.54.84-1.06,1.71-1.63,2.52-.22.32-.31.69-.5,1a.28.28,0,0,0,0,.38.45.45,0,0,1,.19.22c.07.17.19.38.13.52s-.31.1-.48.12A2.76,2.76,0,0,1,37.08,66c-.41-.43-.39-.54.11-.93a7.87,7.87,0,0,0,1.75-1.33c.49-.63.89-1.33,1.32-2,.16-.24.08-.42-.13-.5a25.5,25.5,0,0,0-5.27-1.62,3.26,3.26,0,0,0-2.2.83,3.89,3.89,0,0,0-1.6,3.23,4.85,4.85,0,0,0,.4,2.23,12.56,12.56,0,0,0,2.34,3.56A12.42,12.42,0,0,0,37,72.15a16.28,16.28,0,0,0,4.07,1.58,4.87,4.87,0,0,0,1.51-.12,5.88,5.88,0,0,0,2.9-1.07,3.64,3.64,0,0,0,1.79-2.79,5.34,5.34,0,0,0-.3-2.2,23.92,23.92,0,0,0-1.81-3.4c-.18-.31-.46-.56-.7-1l1.89,0c.09,0,.11.08.16.16A24.58,24.58,0,0,1,49,67.83a4.15,4.15,0,0,1-1.54,4.93,8.62,8.62,0,0,1-5.66,1.45,13,13,0,0,1-6-1.83,15.3,15.3,0,0,1-2.36-1.56A16.18,16.18,0,0,1,30.94,68a9.66,9.66,0,0,1-1.31-2.33A5.21,5.21,0,0,1,30,61,2.51,2.51,0,0,1,31,60.15a7.33,7.33,0,0,1,4.56-.73,22.78,22.78,0,0,1,4.82,1.25c.23.08.39.08.55-.24.91-1.8,1.7-3.66,2.47-5.53,1.21-3,2.46-5.94,3.47-9a14,14,0,0,0,.48-2,.62.62,0,0,0-.14-.51,9.86,9.86,0,0,1-1.4-3.83,11.47,11.47,0,0,1,.25-4.93,42.79,42.79,0,0,1,1.53-5.27,19,19,0,0,1,2.32-4.22A59.62,59.62,0,0,1,54.5,19.6a11.38,11.38,0,0,0,2-2.71,1.07,1.07,0,0,1,1.31-.66,17.77,17.77,0,0,1,4.4,1.28A25.5,25.5,0,0,1,67,19.77a17.88,17.88,0,0,1,4.79,4.28c.71,1,1.48,1.87,2.21,2.8a.79.79,0,0,1,.08.22,3.29,3.29,0,0,0-2.34,2.08c-.93,1.82-1.47,3.8-2.23,5.7a31.56,31.56,0,0,1-2.89,5.82,19.71,19.71,0,0,1-3.13,3.55,37.7,37.7,0,0,1-2.93,2.48,8,8,0,0,1-2.37,1.18,12.08,12.08,0,0,1-2.2.44,6.44,6.44,0,0,1-3.55-.61.51.51,0,0,0-.71.17,48.36,48.36,0,0,0-4.68,5.39A42.48,42.48,0,0,0,43.51,59c-.32.64-.66,1.26-1,1.89-.17.32-.22.54.16.64a1,1,0,0,1,.58.35M69.56,31.66c-.08-.23,1.94-4.88,1.78-4.94-1.82-.68-3.72-1.09-5.58-1.62A15,15,0,0,1,59.41,22a11.79,11.79,0,0,1-2.62-2.91c-.16-.29-.29-.15-.44.05-.68.91-1.49,1.7-2.23,2.55-1.22,1.38-5.95,7.4-5.95,10M71.58,25.9a7.7,7.7,0,0,0-1.39-2.22,18.85,18.85,0,0,0-5.33-4.13,35.8,35.8,0,0,0-6.69-2.4c-.07,0-.24-.22-.31,0s-.23.26-.14.52A6.91,6.91,0,0,0,59.09,20a13.65,13.65,0,0,0,6.16,4.2c2.07.62,4.14,1.23,6.33,1.7M45.67,52.77c0,.07-.17.2,0,.27s.16,0,.24-.11a43,43,0,0,1,5-5.69c.19-.18.22-.24,0-.4a12.12,12.12,0,0,1-2-1.69c-.21-.21-.27,0-.32.17-.11.35-.18.72-.31,1.07-.78,2.14-1.63,4.24-2.51,6.38" transform="translate(-3 828.15)"/><path class="cls-4" d="M69.75,32.2c0-1.73-5.09-3.09-11.33-3s-11.28,1.51-11.27,3.24,5.09,3.08,11.33,3S69.77,33.93,69.75,32.2Z" transform="translate(-3 828.15)"/><path class="cls-4" d="M69.75,32.2c0-1.73-5.09-3.09-11.33-3s-11.28,1.51-11.27,3.24,5.09,3.08,11.33,3S69.77,33.93,69.75,32.2Z" transform="translate(-3 828.15)"/><path class="cls-6" d="M47.69,33.2s2.44,1.91,7.75,2.11a29.24,29.24,0,0,0,13.5-1.92s-1.8,5.47-4.85,8.24c0,0-4.33,5.08-7.82,5.16,0,0-3.85,1.37-7.88-4.15C48.39,42.64,45.94,39.74,47.69,33.2Z" transform="translate(-3 828.15)"/><path class="cls-6" d="M58.52,29.71c-5.47.13-9.88,1.37-9.84,2.75s4.49,2.39,10,2.25,9.88-1.37,9.84-2.75S64,29.57,58.52,29.71Z" transform="translate(-3 828.15)"/><path class="cls-6" d="M66.18,30c-.87-.17-2.88-.28-2.88-.28H60a12.32,12.32,0,0,1-2,0l9.82,2.39L56.48,34.7s-2-.3.28.06a56.47,56.47,0,0,0,7.79,0,22.3,22.3,0,0,0,4.39-1.4l.52-1.89S68.77,30.47,66.18,30Z" transform="translate(-3 828.15)"/><path class="cls-7" d="M71.69,24.17s9-3.14,11.67,1.94c3.26,6.23-5.34,6.82-5.62.74-.11-2.7-6-2.68-6-2.68" transform="translate(-3 828.15)"/><path class="cls-8" d="M64.48,18s3.57-10-2-13c-6.87-3.67-7.61,5.86-.87,6.22,3,.16,2.91,6.74,2.91,6.74" transform="translate(-3 828.15)"/><path class="cls-9" d="M67.34,17.83s18.59-1.64,18.91-7c.39-6.5-8.26-3.52-11,1.27-2.38,4.17-7.9,5.74-7.9,5.74" transform="translate(-3 828.15)"/><path class="cls-10" d="M24.81,43.75c-3.38.26-8.41.48-11.18-2.56s-1.78-8.22-7-8.41c.84,0,2.26-1.19,3.11-1.44a10.62,10.62,0,0,1,3.7-.41,15.7,15.7,0,0,1,7.4,2.34c1.75,1.14,9.47,8.72,4.66,10" transform="translate(-3 828.15)"/><path class="cls-4" d="M24.68,43.47C34.43,49.22,44,55.3,53.82,61c1.53.89,8.38,5.69,10.09,4.8,1.53-.79-2.76-3.58-3.65-4.24-3.89-2.86-8.06-5.27-12.14-7.77C40.8,49.27,33.87,44,26.47,39.68c0,1.33-.46,3.27-1.79,3.79" transform="translate(-3 828.15)"/><path class="cls-11" d="M31.29,47.08A44.9,44.9,0,0,1,25.4,43.5a29.36,29.36,0,0,0,1.75-3.66c-.24.51,9.2,4,4.14,7.24" transform="translate(-3 828.15)"/><path class="cls-4" d="M8.88,32.12s12.79-3,16.22,8.18c0,0-2.93-9.65-16.22-8.18" transform="translate(-3 828.15)"/><path class="cls-4" d="M9.43,33.21a9.64,9.64,0,0,1,8,3.11A15.35,15.35,0,0,0,24.34,41a16.13,16.13,0,0,1-7.59-4,13.85,13.85,0,0,0-7.32-3.73" transform="translate(-3 828.15)"/><path class="cls-4" d="M12.13,34.49a14.38,14.38,0,0,0,9.92,7.08s-6.41-2.48-9.92-7.08" transform="translate(-3 828.15)"/><path class="cls-4" d="M23.25,39.74s-.69-5-9.72-6.93c0,0,7.08,2.41,9.72,6.93" transform="translate(-3 828.15)"/><path class="cls-4" d="M11.59,35.92a46.51,46.51,0,0,1,4.5,5.69c.92,1.76,7.65.81,7.65.81s-5.44.45-7.17-1.24c0,0-3.3-4.19-5-5.26" transform="translate(-3 828.15)"/><path class="cls-10" d="M23.48,53.8c-2.53,1-6.38,2.4-10.27,1.05S7.23,49.79,3,51c.68-.19,1.12-1.36,1.66-1.74A8,8,0,0,1,7.35,48a18.38,18.38,0,0,1,7.16-.26c2,.33,12.34,3.5,9.27,5.56" transform="translate(-3 828.15)"/><path class="cls-4" d="M23.22,53.65c10.91,1.44,21.9,3.14,32.78,4.51,1.71.22,9.8,1.75,10.66.73S62.48,57.17,61.4,57c-4.67-1-9.3-1.54-13.92-2.2-8.29-1.19-16.7-3-25-4.08.71.9,1.46,2.31.7,3" transform="translate(-3 828.15)"/><path class="cls-11" d="M30.45,54.43a62,62,0,0,1-6.64-.94,17.74,17.74,0,0,0-.66-2.88c.1.4,9.49.4,7.3,3.82" transform="translate(-3 828.15)"/><path class="cls-4" d="M4.41,50a16,16,0,0,1,17.38,1.48A18.12,18.12,0,0,0,4.41,50" transform="translate(-3 828.15)"/><path class="cls-4" d="M5.45,50.55s3.23-1.59,8.07.1a21.23,21.23,0,0,0,8,1.41,21.18,21.18,0,0,1-8.25-.83,17.63,17.63,0,0,0-7.86-.68" transform="translate(-3 828.15)"/><path class="cls-4" d="M8.29,50.74S14,54,20.08,53A36.86,36.86,0,0,1,8.29,50.74" transform="translate(-3 828.15)"/><path class="cls-4" d="M20,51.5s-3.3-3.14-11.55-2.24c0,0,7-.13,11.55,2.24" transform="translate(-3 828.15)"/><path class="cls-4" d="M8.66,51.82s5,1.76,6.73,2.7,6.51-1.34,6.51-1.34-4.06,1.64-6.36.94a53,53,0,0,0-6.88-2.3" transform="translate(-3 828.15)"/></g></g></g></svg>